<?xml version="1.0" standalone="no"?>
<!DOCTYPE svg PUBLIC "-//W3C//DTD SVG 1.1//EN" "http://www.w3.org/Graphics/SVG/1.1/DTD/svg11.dtd" >
<svg xmlns="http://www.w3.org/2000/svg">
<metadata>Generated by IcoMoon</metadata>
<defs>
<font id="icomoon" horiz-adv-x="1024">
<font-face units-per-em="1024" ascent="960" descent="-64" />
<missing-glyph horiz-adv-x="1024" />
<glyph unicode="&#x20;" horiz-adv-x="512" d="" />
<glyph unicode="&#xe900;" glyph-name="lock" horiz-adv-x="854" d="M743.818 709.837h-66.71c0 136.756-110.072 250.163-250.163 250.163s-250.163-113.407-250.163-250.163h-66.71c-60.039 0-110.072-50.033-110.072-110.072v-557.029c0-60.039 50.033-110.072 110.072-110.072h637.081c60.039 0 110.072 50.033 110.072 110.072v557.029c-3.336 60.039-53.368 110.072-113.407 110.072zM510.332 119.453h-190.124l66.71 226.814c-40.026 10.007-66.71 46.697-66.71 90.059 0 53.368 43.362 93.394 93.394 93.394 53.368 0 93.394-43.362 93.394-93.394 0-43.362-30.020-80.052-66.71-90.059l70.046-226.814zM250.163 709.837c0 96.73 80.052 176.782 176.782 176.782s176.782-80.052 176.782-176.782h-353.564z" />
<glyph unicode="&#xe901;" glyph-name="maximize" horiz-adv-x="1277" d="M110.108 849.892h220.215v110.108h-330.323v-330.323h110.108zM1167.14 376.43h-550.538v-440.43h660.645v440.43zM946.925 960v-110.108h220.215v-220.215h110.108v330.323zM110.108 46.108v220.215h-110.108v-330.323h330.323v110.108z" />
<glyph unicode="&#xe902;" glyph-name="small-close" horiz-adv-x="1026" d="M1023.278 788.852l-170.426 170.426-341.574-340.852-340.852 340.852-170.426-170.426 340.852-340.852-340.13-340.852 170.426-170.426 340.13 340.852 340.852-340.852 170.426 170.426-340.852 340.852z" />
<glyph unicode="&#xe903;" glyph-name="minimize" horiz-adv-x="1837" d="M1749.333 948.364l-826.182-824.889-824.889 824.889-91.798-91.798 916.687-916.687 917.98 916.687z" />
<glyph unicode="&#xe904;" glyph-name="forward" horiz-adv-x="639" d="M129.91 947.264l-114.627-114.627 383.363-384.637-383.363-383.363 114.627-114.627 499.264 497.99z" />
<glyph unicode="&#xe905;" glyph-name="map" horiz-adv-x="955" d="M938.31 767.197l-68.552 25.707c0-4.285 0-4.285 0-8.569 0-8.569 0-21.423-4.285-34.276l42.845-17.138v-608.402l-201.372 72.837v265.64c-12.854-12.854-29.992-21.423-42.845-21.423v-244.218l-368.469-192.803v599.833l162.812 85.69c-4.285 12.854-8.569 29.992-12.854 42.845l-171.381-89.975-235.649 124.251c-8.569 4.285-12.854 4.285-21.423 0s-12.854-12.854-12.854-21.423v-651.247c0-8.569 4.285-17.138 12.854-17.138l244.218-128.536c4.285 0 8.569-4.285 8.569-4.285s8.569 0 8.569 4.285l402.745 214.226 235.649-81.406c4.285 0 4.285 0 8.569 0s8.569 0 12.854 4.285c4.285 4.285 8.569 8.569 8.569 17.138v642.678c4.285 8.569 0 17.138-8.569 21.423zM248.502 0.268l-201.372 107.113v604.117l201.372-107.113v-604.117zM651.247 955.715c-94.259 0-175.665-77.121-175.665-175.665 0-94.259 128.536-304.201 175.665-304.201s175.665 205.657 175.665 304.201c0 98.544-81.406 175.665-175.665 175.665zM651.247 694.36c-47.13 0-85.69 38.561-85.69 85.69s38.561 85.69 85.69 85.69 85.69-38.561 85.69-85.69c0-47.13-38.561-85.69-85.69-85.69z" />
<glyph unicode="&#xe906;" glyph-name="play" horiz-adv-x="1037" d="M217.27 954.893l809.496-506.254-809.496-506.467v1012.722z" />
<glyph unicode="&#xe907;" glyph-name="music" horiz-adv-x="722" d="M203.776 584.875v-459.947c-18.773 7.851-40.448 12.459-63.829 12.459-71.68 0-127.659-41.984-127.659-95.573 0-53.419 56.149-95.232 127.659-95.232 71.68 0 127.659 41.813 127.659 95.232 0 0.341 0 0.683 0 1.024v403.627l319.317 113.835v-308.053c-18.773 7.851-40.448 12.459-63.829 12.459-71.68 0-127.659-41.984-127.659-95.403s56.149-95.403 127.659-95.403 127.659 41.984 127.659 95.403v575.147l-446.976-159.573z" />
<glyph unicode="&#xe908;" glyph-name="cup" horiz-adv-x="841" d="M221.455 23.587h401.107v-67.183h-401.107v67.183zM800.721 762.764c-2.82 7.465-9.455 12.773-17.418 13.934-7.797 1.161-15.759-1.991-20.735-8.46-0.166-0.166-13.437-17.252-31.020-33.343-12.773-11.446-24.551-19.408-34.338-22.892 1.327 20.901 2.156 41.969 2.156 63.533h-553.72c0-21.565 0.664-42.632 2.156-63.533-9.621 3.649-21.565 11.612-34.338 22.892-17.75 15.925-31.020 33.177-31.186 33.343-4.811 6.304-12.773 9.455-20.735 8.46s-14.598-6.469-17.418-13.934c-16.92-44.291-21.399-90.904-12.939-138.513 7.631-43.296 25.38-85.596 52.917-125.574 32.513-47.277 76.141-87.587 126.237-116.782 20.238-11.944 41.139-21.399 62.206-28.864 5.806-6.801 11.778-13.105 17.75-19.077 15.759-15.593 103.18-87.089 104.673-149.627 1.327-54.078-82.112-100.857-82.112-100.857v-33.509h219.63v33.509c0 0-83.439 46.945-82.112 100.857 1.493 62.372 88.748 134.2 104.507 149.627 6.138 5.972 11.944 12.441 17.75 19.077 21.067 7.299 41.637 16.92 62.040 28.864 50.097 29.196 93.724 69.671 126.072 116.782 27.371 39.978 45.12 82.112 52.751 125.574 8.626 47.609 4.147 94.222-12.773 138.513zM120.597 523.726c-41.637 60.548-57.23 125.574-45.452 186.785 2.654-2.654 5.474-5.308 8.46-7.797 24.717-22.394 47.775-34.67 68.842-36.826 11.28-92.231 36.66-175.007 71.496-240.531-39.978 24.883-75.975 58.557-103.346 98.369zM724.58 523.726c-27.371-39.812-63.368-73.486-103.18-98.369 35.001 65.524 60.216 148.3 71.496 240.531 20.901 1.991 43.959 14.432 68.676 36.826 2.82 2.654 5.64 5.308 8.46 7.797 11.612-61.211-3.981-126.237-45.452-186.785z" />
<glyph unicode="&#xe909;" glyph-name="flag" horiz-adv-x="811" d="M208.855-35.612l-188.578 707.675c-6.083 20.277 6.083 40.554 26.36 46.638v0c20.277 6.083 38.527-6.083 44.61-26.36v0l190.606-709.703c6.083-20.277-6.083-38.527-26.36-44.61v0c-18.25-6.083-40.554 6.083-46.638 26.36v0zM758.368 586.899c-10.139 38.527-20.277 75.026-30.416 113.552s-20.277 81.109-34.471 131.802c-36.499-38.527-75.026-54.749-111.525-62.859s-75.026-12.166-109.497-12.166-70.97 2.028-107.469 4.055c-34.471 0-72.998 0-107.469-10.139-38.527-8.111-77.053-26.36-113.552-64.887 14.194-48.665 24.333-91.248 34.471-131.802 10.139-38.527 20.277-75.026 30.416-113.552s20.277-81.109 34.471-131.802c36.499 38.527 75.026 54.749 111.525 62.859s72.998 10.139 107.469 10.139c34.471 0 70.97-4.055 105.442-4.055s72.998 2.028 107.469 10.139c36.499 8.111 75.026 26.36 111.525 62.859-8.111 54.749-20.277 97.331-28.388 135.857z" />
<glyph unicode="&#xe90a;" glyph-name="chrono" horiz-adv-x="1277" d="M831.354 859.152c-15.515 0-29.737 0-31.030 0s-2.586-1.293-2.586-2.586c0-1.293 0-16.808 0-33.616v-11.636c0-16.808 14.222-25.859 31.030-25.859h6.465c16.808 0 31.030 9.051 31.030 25.859v11.636c0 16.808 0 32.323 0 33.616s-1.293 2.586-2.586 2.586c-3.879 0-18.101 0-32.323 0zM758.949 872.081h149.98c14.222 0 24.566 11.636 24.566 24.566v24.566c0 14.222-11.636 24.566-24.566 24.566h-149.98c-14.222 0-24.566-11.636-24.566-24.566v-24.566c0-14.222 11.636-24.566 24.566-24.566zM886.949 804.848c0-14.222-15.515-40.081-55.596-40.081s-55.596 28.444-55.596 40.081c-212.040-27.152-374.949-206.869-374.949-425.374 0-237.899 192.646-429.253 429.253-429.253 237.899 0 429.253 192.646 429.253 429.253 1.293 218.505-161.616 398.222-372.364 425.374zM831.354 36.848c-188.768 0-342.626 153.859-342.626 342.626s153.859 342.626 342.626 342.626 342.626-153.859 342.626-342.626c0-188.768-153.859-342.626-342.626-342.626zM842.99 415.677v237.899h-18.101v-237.899c-19.394-3.879-34.909-21.98-34.909-42.667 0-24.566 19.394-43.96 43.96-43.96s43.96 19.394 43.96 43.96c0 20.687-15.515 38.788-34.909 42.667zM870.141 440.242c0 0 11.636-3.879 18.101-10.343 7.758-7.758 11.636-20.687 11.636-20.687l74.99 74.99-31.030 31.030-73.697-74.99zM18.101 392.404c0-16.808 14.222-31.030 31.030-31.030h266.343c16.808 0 31.030 14.222 31.030 31.030v0c0 16.808-14.222 31.030-31.030 31.030h-266.343c-18.101 0-31.030-12.929-31.030-31.030v0zM204.283 704c0-16.808 14.222-31.030 31.030-31.030h192.646c16.808 0 31.030 14.222 31.030 31.030v0c0 16.808-14.222 31.030-31.030 31.030h-192.646c-16.808 1.293-31.030-12.929-31.030-31.030v0zM204.283 82.101c0-16.808 14.222-31.030 31.030-31.030h192.646c16.808 0 31.030 14.222 31.030 31.030v0c0 16.808-14.222 31.030-31.030 31.030h-192.646c-16.808 0-31.030-14.222-31.030-31.030v0zM86.626 234.667c0-16.808 14.222-31.030 31.030-31.030h226.263c16.808 0 31.030 14.222 31.030 31.030v0c0 16.808-14.222 31.030-31.030 31.030h-226.263c-18.101 0-31.030-14.222-31.030-31.030v0zM86.626 550.141c0-16.808 14.222-31.030 31.030-31.030h226.263c16.808 0 31.030 14.222 31.030 31.030v0c0 16.808-14.222 31.030-31.030 31.030h-226.263c-18.101 1.293-31.030-12.929-31.030-31.030v0z" />
<glyph unicode="&#xe90b;" glyph-name="next" horiz-adv-x="3451" d="M3418.064 926.158v-64.409l-1692.111-902.823-1692.111 902.823v64.409l1692.111-902.823 1692.111 902.823z" />
<glyph unicode="&#xe90c;" glyph-name="slipstreamers" horiz-adv-x="1957" d="M1146.345 681.311c-69.338 0-231.036 0-231.036 0-31.322 0-62.377-25.433-68.267-57.826l-6.961-43.905c-5.89-32.393 16.063-57.826 47.385-57.826h217.382c142.155 0 206.942-91.825 187.131-206.139l-9.37-50.865c-9.102-53.007-41.228-101.998-84.329-139.21-13.118-10.441-25.165-19.811-37.212-27.574-2.409-1.339-10.441-6.425-12.315-7.496-6.157-3.48-12.047-6.693-18.472-9.638-40.96-19.008-88.345-25.433-172.139-25.433-75.495 0-816.523 0-885.593 0s-73.889-3.748-2.945-6.425c301.444-10.708 485.363-82.991 848.916-92.361 42.566-1.071 174.281-9.37 256.468 16.866 144.832 46.047 246.831 149.919 276.815 378.545 29.984 232.374-161.966 329.286-305.46 329.286zM1886.034 846.758c-301.444 10.708-482.15 82.991-845.704 92.361-42.566 1.071-174.281 9.37-256.468-16.866-144.832-46.047-246.831-149.919-276.815-378.545-30.519-232.642 161.431-329.554 305.192-329.554 69.338 0 231.036 0 231.036 0 31.322 0 62.377 25.433 68.267 57.826l6.961 43.905c5.89 32.393-16.063 57.826-47.385 57.826h-217.382c-142.155 0-206.942 91.825-187.399 206.139l9.37 50.865c9.102 53.007 41.228 101.998 84.329 139.21 13.118 10.441 25.165 19.811 37.212 27.574 2.409 1.339 4.551 2.945 6.961 4.283 1.874 1.071 3.48 2.142 5.354 3.213 6.157 3.48 12.047 6.693 18.472 9.638 40.96 19.008 88.345 25.433 172.139 25.433 75.495 0 816.523 0 885.593 0 69.605 0.268 70.944 4.283 0.268 6.693z" />
<glyph unicode="&#xe90d;" glyph-name="plus" horiz-adv-x="1022" d="M1022.389 403.495v89.011h-467.495v467.495h-89.118v-467.495h-467.495v-89.011h467.495v-467.495h89.118v467.495z" />
<glyph unicode="&#xe90e;" glyph-name="separator" horiz-adv-x="316" d="M15.173 946.764h19.047l266.976-500.378-266.976-500.378h-19.047l266.976 500.378-266.976 500.378z" />
<glyph unicode="&#xe90f;" glyph-name="calendar" horiz-adv-x="1065" d="M803.077 137.233v133.606h133.915v89.173h-133.915v133.709h-89.173v-133.709h-133.915v-89.070h133.812v-133.709h89.277zM892.25 226.303v-133.709c0-40.205-48.246-44.638-89.277-44.638h-535.453c-40.927 0-89.173 48.968-89.173 89.173v445.764h713.903v-178.347l89.277 10.515v285.355c0 74.122-58.246 149.894-133.812 149.894h-44.638v44.535c0 16.907-27.216 44.535-44.535 44.535s-44.638-27.628-44.638-44.535v-44.535h-357.106v44.535c0 16.907-27.216 44.535-44.638 44.535-17.319 0-44.741-27.628-44.741-44.535v-44.535h-44.638c-75.565 0-133.812-75.772-133.812-149.894v-607.101c0-74.122 61.236-134.327 136.801-134.327h618.854c75.565 0 136.801 60.205 136.801 134.327v133.090h-89.173z" />
<glyph unicode="&#xe910;" glyph-name="close" horiz-adv-x="1065" d="M973.486 948.351l-921.322-920.085 80.101-79.998 921.322 920.085zM92.266 948.351l-80.101-79.998 921.219-920.085 80.205 79.998z" />
<glyph unicode="&#xe911;" glyph-name="hour" horiz-adv-x="1065" d="M535.556 945.567c-274.221 0-496.382-221.954-496.382-495.454 0-273.809 222.16-495.557 496.382-495.557 273.809 0 495.969 221.748 495.969 495.557 0 273.5-222.16 495.454-495.969 495.454zM813.386 236.613c-10-12.783-24.948-19.587-39.896-19.587-10.618 0-21.649 3.402-30.618 10.309l-257.727 198.037v339.89c0 27.628 22.371 50.102 50.411 50.102 27.628 0 49.999-22.474 49.999-50.102v-290.51l218.552-167.935c22.061-16.804 26.082-48.246 9.278-70.205z" />
<glyph unicode="&#xe912;" glyph-name="hide-map" horiz-adv-x="1065" d="M750.397 407.64c16.598 0 32.886-1.649 48.556-4.742 39.174 79.071 60.514 144.224 60.514 193.089 0 196.491-166.285 355.663-371.333 355.663-204.944 0.103-371.23-159.172-371.23-355.56 0-66.597 39.69-163.296 109.895-284.324 20.515-35.36 43.401-72.163 68.143-110.101 38.453-58.968 79.689-117.626 120.822-173.502 14.433-19.484 27.834-37.216 39.793-52.989 7.216-9.381 12.371-16.082 15.257-19.69 8.66-11.031 26.082-11.031 34.845 0 2.783 3.608 7.938 10.309 15.257 19.69 12.062 15.773 25.36 33.504 39.793 52.989 1.031 1.443 2.062 2.887 3.093 4.227-33.608 39.587-53.71 90.101-53.71 145.049 0 127.111 107.627 230.202 240.304 230.202zM488.238 491.35c-84.431 0-152.884 65.566-152.884 146.492 0 80.823 68.452 146.492 152.884 146.492 84.534 0 152.884-65.566 152.884-146.492s-68.349-146.492-152.884-146.492zM750.397 365.785c-108.555 0-196.594-84.328-196.594-188.347s88.039-188.347 196.594-188.347c108.555 0 196.491 84.328 196.491 188.347 0.103 104.019-87.936 188.347-196.491 188.347zM827.612 133.109c8.453-8.247 8.453-21.443 0-29.69-8.557-8.144-22.371-8.144-30.927 0l-46.288 44.432-46.391-44.432c-8.557-8.144-22.371-8.144-30.824 0s-8.453 21.443 0 29.69l46.288 44.329-46.288 44.432c-8.453 8.144-8.453 21.34 0 29.587 8.557 8.144 22.371 8.144 30.824 0l46.391-44.432 46.288 44.432c8.557 8.144 22.371 8.144 30.927 0 8.453-8.247 8.453-21.443 0-29.587l-46.391-44.432 46.391-44.329z" />
<glyph unicode="&#xe913;" glyph-name="backward" horiz-adv-x="640" d="M515.2-51.2l115.2 115.2-384 384 384 384-115.2 115.2-499.2-499.2 499.2-499.2z" />
<glyph unicode="&#xe914;" glyph-name="twitter" horiz-adv-x="1283" d="M1274.774 830.495c-46.336-20.091-96.653-33.937-149.233-40.091 53.757 31.403 94.753 80.997 114.482 140.183-50.227-29.050-105.884-50.137-165.523-61.449-47.15 48.96-114.844 79.82-189.506 79.82-143.441 0-259.914-113.305-259.914-252.946 0-20 2.443-39.186 6.606-57.648-216.022 10.679-407.428 111.133-535.756 264.439-22.534-37.286-35.295-80.997-35.295-127.333 0-87.784 46.064-165.342 115.568-210.411-42.535 1.086-82.264 12.76-117.468 31.584v-3.077c0-122.717 89.685-225.072 208.42-248.421-21.72-5.611-44.797-8.597-68.417-8.597-16.652 0-32.851 1.448-49.141 4.434 33.304-100.545 129.052-173.487 242.9-175.84-88.961-67.784-201.18-108.056-322.902-108.056-20.905 0-41.449 1.176-61.902 3.348 115.296-71.947 251.769-113.667 398.65-113.667 477.927 0 739.289 385.618 739.289 719.832l-0.814 32.761c51.132 35.838 95.205 80.273 129.957 131.134v0z" />
<glyph unicode="&#xe915;" glyph-name="logo" horiz-adv-x="7141" d="M1168.080 730.157h-102.915l-159.518-361.916c-30.874-72.040 1.715-132.074 73.755-132.074h186.961l-29.159 96.054h-108.060c-20.583 0-29.159 17.152-20.583 36.020l159.518 361.916zM1425.367 730.157l-217.836-493.99h102.915l217.836 493.99h-102.915zM1843.886 632.389c20.583 0 29.159-15.437 20.583-36.020l-34.305-77.186c-8.576-20.583-32.59-36.020-53.173-36.020h-61.749l-120.067-97.769h149.226c99.484 0 156.087 58.318 188.677 128.643l1.715 3.43 36.020 80.616v1.715c30.874 72.040-8.576 128.643-80.616 128.643h-277.869l-217.836-492.275h102.915l173.24 396.221h173.24zM3399.611 730.157h-581.467c0 0 46.312 0 101.199-27.444 60.034-29.159 75.471-70.325 75.471-70.325h171.524l-70.325-48.027-152.657-348.194h102.915l173.24 396.221h135.504l44.596 97.769zM3771.819 514.037l36.020 84.047v1.715c30.874 72.040-8.576 128.643-80.616 128.643h-277.869l-217.836-493.99h102.915l173.24 396.221h171.524c20.583 0 29.159-15.437 20.583-36.020l-34.305-77.186c-8.576-20.583-32.59-36.020-53.173-36.020h-84.047l-106.345-97.769h99.484l34.305-149.226h111.491l-42.881 159.518c66.894 12.007 108.060 42.881 147.511 120.067zM5214.338 730.157l-209.26-207.544-29.159 207.544h-102.915l-217.836-493.99h102.915l135.504 307.028 25.729-150.941h73.755l149.226 140.65-132.074-296.737h102.915l217.836 493.99h-116.637zM5353.273 369.956l27.444 65.179h246.995l42.881 97.769h-198.968l-70.325-49.742 49.742 113.206c8.576 20.583 32.59 36.020 53.173 36.020h181.816l72.040 97.769h-217.836c-72.040 0-157.802-60.034-190.392-132.074l-101.199-229.843c-30.874-72.040 8.576-132.074 80.616-132.074h212.69l42.881 96.054h-210.975c-20.583 1.715-29.159 17.152-20.583 37.735zM3885.025 369.956l27.444 65.179h246.995l42.881 97.769h-198.968l-70.325-49.742 49.742 113.206c8.576 20.583 32.59 36.020 53.173 36.020h181.816l72.040 97.769h-219.551c-72.040 0-157.802-60.034-190.392-132.074l-101.199-229.843c-30.874-72.040 1.715-132.074 73.755-132.074h219.551l42.881 96.054h-210.975c-18.868 1.715-27.444 17.152-18.868 37.735zM4651.739 730.157h-145.796c-72.040 0-157.802-60.034-190.392-132.074l-159.518-361.916h102.915l157.802 360.201c8.576 20.583 32.59 36.020 53.173 36.020h135.504c20.583 0 29.159-15.437 20.583-36.020l-49.742-114.921h-108.060l-120.067-97.769h185.246l-65.179-149.226h104.63l159.518 361.916c30.874 75.471-8.576 133.789-80.616 133.789zM792.442 532.905h-137.219c-20.583 0-29.159 15.437-20.583 36.020l12.007 27.444c8.576 20.583 32.59 36.020 53.173 36.020h204.114l72.040 97.769h-248.71c-72.040 0-157.802-60.034-190.392-132.074l-13.722-32.59c-30.874-72.040 1.715-132.074 73.755-132.074h137.219c20.583 0 29.159-15.437 20.583-36.020l-8.576-20.583c-20.583-48.027-75.471-70.325-96.054-70.325s-63.464 0-68.61 0-511.142 1.715-533.441 1.715-34.305-3.43 0-5.146c197.253-10.291 300.168-66.894 538.586-73.755 10.291 0 27.444 0 49.742 0 12.007 0 25.729 0 41.166 1.715 6.861 0 15.437 1.715 22.298 3.43 0 0 0 0 0 0v0c75.471 13.722 123.497 68.61 152.657 133.789l13.722 32.59c32.59 72.040-1.715 132.074-73.755 132.074zM6377.273 599.799c27.444 61.749 68.61 58.318 84.047 58.318s578.037 0 617.487 0c46.312 0 49.742 3.43 3.43 5.146-197.253 8.576-303.598 66.894-542.017 73.755-10.291 0-27.444 0-49.742 0-12.007 0-39.451 0-54.888-1.715-6.861 0-15.437-1.715-22.298-3.43 0 0 0 0 0 0v0c-75.471-13.722-121.782-61.749-149.226-128.643l-13.722-29.159c-30.874-72.040 15.437-132.074 87.477-132.074h137.219c20.583 0 29.159-15.437 20.583-36.020l-13.722-34.305c-8.576-20.583-32.59-36.020-53.173-36.020h-238.419l-72.040-96.054h284.73c72.040 0 157.802 60.034 188.677 132.074l17.152 37.735c30.874 72.040-15.437 132.074-87.477 132.074h-130.358c-20.583 0-29.159 15.437-20.583 36.020l6.861 22.298zM2624.322 682.131c-66.894 0-224.697 0-224.697 0-30.874 0-60.034-24.013-65.179-56.603l-6.861-42.881c-5.146-30.874 15.437-56.603 46.312-56.603h210.975c137.219 0 200.683-89.193 181.816-198.968l-8.576-49.742c-8.576-51.457-39.451-99.484-82.332-135.504-12.007-10.291-24.013-18.868-36.020-27.444-1.715-1.715-10.291-6.861-12.007-6.861-5.146-3.43-12.007-6.861-17.152-8.576-39.451-18.868-85.762-24.013-166.379-24.013-73.755 0-790.727 0-857.621 0s-72.040-3.43-3.43-6.861c291.591-10.291 469.977-80.616 821.601-89.193 41.166-1.715 168.094-8.576 248.71 15.437 140.65 44.596 238.419 145.796 267.578 367.062 27.444 228.127-157.802 320.75-296.737 320.75zM2300.141 231.022c66.894 0 224.697 0 224.697 0 30.874 0 60.034 24.013 65.179 56.603l6.861 42.881c5.146 30.874-15.437 56.603-46.312 56.603h-210.975c-137.219 0-200.683 89.193-181.816 198.968l8.576 49.742c8.576 51.457 39.451 99.484 82.332 135.504 12.007 10.291 24.013 18.868 36.020 27.444 1.715 1.715 5.146 3.43 6.861 3.43 1.715 1.715 3.43 1.715 5.146 3.43 5.146 3.43 12.007 6.861 17.152 8.576 39.451 18.868 85.762 24.013 166.379 24.013 73.755 0 790.727 0 857.621 0s68.61 3.43 0 6.861c-291.591 10.291-466.546 80.616-819.886 89.193-41.166 1.715-168.094 8.576-248.71-15.437-140.65-44.596-238.419-145.796-267.578-367.062-25.729-226.412 159.518-320.75 298.452-320.75zM6156.007 514.037l36.020 84.047v1.715c30.874 72.040-8.576 128.643-80.616 128.643h-277.869l-217.836-493.99h102.915l173.24 396.221h171.524c20.583 0 29.159-15.437 20.583-36.020l-34.305-77.186c-8.576-20.583-32.59-36.020-53.173-36.020h-78.901l-106.345-97.769h99.484l34.305-149.226h111.491l-42.881 159.518c63.464 12.007 104.63 42.881 142.365 120.067z" />
<glyph unicode="&#xe916;" glyph-name="printer" d="M256 896h512v-128h-512v128zM960 704h-896c-35.2 0-64-28.8-64-64v-320c0-35.2 28.794-64 64-64h192v-256h512v256h192c35.2 0 64 28.8 64 64v320c0 35.2-28.8 64-64 64zM128 512c-35.346 0-64 28.654-64 64s28.654 64 64 64 64-28.654 64-64-28.652-64-64-64zM704 64h-384v320h384v-320z" />
</font>
</defs>
</svg>
